<?xml version="1.0" encoding="UTF-8"?><svg id="b" xmlns="http://www.w3.org/2000/svg" xmlns:xlink="http://www.w3.org/1999/xlink" viewBox="0 0 445.77 282.61"><defs><filter id="d" filterUnits="userSpaceOnUse"><feOffset dx="2.11" dy="8.44"/><feGaussianBlur result="e" stdDeviation="6.33"/><feFlood flood-color="#494949" flood-opacity=".4"/><feComposite in2="e" operator="in"/><feComposite in="SourceGraphic"/></filter><linearGradient id="f" x1="40.79" y1="-40.79" x2="376.42" y2="294.84" gradientUnits="userSpaceOnUse"><stop offset=".3" stop-color="#c51f22"/><stop offset=".53" stop-color="#c01f22"/><stop offset=".8" stop-color="#b21f22"/><stop offset="1" stop-color="#a31f22"/></linearGradient></defs><g id="c"><g style="filter:url(#d);"><path d="M0,0v282.61h112.74c-8.25,0-12.9-.2-12.9-.2h28.29c56.98-1.45,186.93-12.24,266.71-77.74,10.64,44.8,48.35,52.64,50.81-2.05v-11.89c.09,2.11.13,4.15.13,6.11V0H0Z" style="fill:url(#f); stroke-width:0px;"/><path d="M425.53,240.92c-11.62,1.03-25.01-12.35-30.69-36.26-104.48,85.78-295,77.74-295,77.74,184.54.2,337.31-42.51,325.69-41.49Z" style="fill:#6c1817; stroke-width:0px;"/></g><text transform="translate(36.28 185.51)" style="fill:#fff; font-family:Antonio-Bold, Antonio; font-size:84.43px; font-weight:700;"><tspan x="0" y="0">TELAH TUTUP</tspan></text><text transform="translate(44.12 83.58)" style="fill:#fff; font-family:Yellowtail, Yellowtail; font-size:40.71px;"><tspan x="0" y="0">Ma</tspan><tspan x="48.03" y="0" style="letter-spacing:.01em;">a</tspan><tspan x="65.2" y="0">f!</tspan></text><text transform="translate(148.32 83.58)" style="fill:#fff; font-family:Poppins-SemiBold, Poppins; font-size:21.71px; font-weight:600; letter-spacing:.05em;"><tspan x="0" y="0">LOWONGAN KERJA INI</tspan></text></g></svg>