<?xml version="1.0" encoding="UTF-8"?>
<svg id="Layer_2" data-name="Layer 2" xmlns="http://www.w3.org/2000/svg" viewBox="0 0 139.7 15.1">
  <g id="Layer_1-2" data-name="Layer 1">
    <g>
      <path d="M10.9,3.5c-.7-1.2-1.6-2.1-2.6-2.6-1.1-.5-2.7-.8-4.9-.8H1.4C.6,0,0,.6,0,1.4h0c0,.8.6,1.4,1.4,1.4h2.4c1.8,0,3.1.4,3.9,1.2.9.9,1.3,2.1,1.3,3.7s-.2,1.9-.6,2.6c-.4.7-.9,1.2-1.4,1.5-.6.3-1.5.5-2.8.5h-1.3v-3.5c0-.8-.6-1.4-1.4-1.4h0c-.8,0-1.4.6-1.4,1.4v6.3h3.4c2,0,3.3-.1,4.1-.4.8-.2,1.5-.7,2.2-1.3.7-.6,1.2-1.4,1.6-2.4.4-1,.6-2,.6-3.2s-.3-3.1-1-4.3Z" fill="#ffd300" stroke-width="0"/>
      <circle cx="1.3" cy="5.2" r="1.3" fill="#ffd300" stroke-width="0"/>
    </g>
    <g>
      <path d="M17.9,2h2.9c.8,0,1.4,0,2,.2.5.1,1,.4,1.5.8,1.2,1,1.7,2.5,1.7,4.5s0,1.3-.2,1.8c-.1.5-.3,1-.5,1.5-.2.4-.6.8-.9,1.2-.3.3-.6.5-1,.6-.4.2-.7.3-1.1.3-.4,0-.9,0-1.4,0h-2.9c-.4,0-.7,0-.9-.2-.2-.1-.3-.3-.4-.5,0-.2,0-.5,0-.9V3.4c0-.5.1-.8.3-1,.2-.2.6-.3,1.1-.3ZM18.8,3.8v7.5h1.7c.4,0,.7,0,.9,0,.2,0,.4,0,.7-.2.2,0,.4-.2.6-.3.8-.6,1.1-1.7,1.1-3.3s-.2-1.9-.5-2.5c-.3-.5-.7-.9-1.2-1s-1.1-.2-1.8-.2h-1.5Z" stroke-width="0"/>
      <path d="M33,12.1c-.5.4-1,.7-1.4.9-.5.2-1,.3-1.6.3s-1-.1-1.4-.3-.7-.5-.9-.8c-.2-.4-.3-.7-.3-1.2s.2-1,.5-1.4c.4-.4.8-.7,1.5-.8.1,0,.5,0,1-.2s1-.2,1.3-.3.8-.2,1.2-.3c0-.5-.1-.9-.3-1.2-.2-.3-.6-.4-1.2-.4s-.9,0-1.2.2c-.3.1-.5.4-.7.7-.2.3-.3.5-.4.6,0,0-.2.1-.5.1s-.4,0-.6-.2c-.2-.1-.3-.3-.3-.6,0-.4.1-.7.4-1.1.3-.3.7-.6,1.2-.8s1.2-.3,2-.3,1.6.1,2.1.3.9.6,1.1,1c.2.5.3,1.1.3,1.8s0,.9,0,1.2c0,.3,0,.7,0,1.1,0,.4,0,.8.2,1.2.1.4.2.7.2.8,0,.2,0,.4-.3.6-.2.2-.4.3-.7.3s-.4,0-.6-.3c-.2-.2-.4-.5-.7-.9ZM32.9,9.1c-.3.1-.7.2-1.3.4-.6.1-1,.2-1.2.3-.2,0-.4.2-.6.3-.2.2-.3.4-.3.7s.1.6.4.8c.2.2.5.3.9.3s.8,0,1.1-.3.6-.4.8-.7c.2-.3.3-.8.3-1.5v-.3Z" stroke-width="0"/>
      <path d="M43.9,9.2v2.7c0,.4,0,.8-.3,1-.2.2-.5.3-.8.3s-.6-.1-.8-.3c-.2-.2-.3-.5-.3-1v-3.3c0-.5,0-.9,0-1.2,0-.3-.1-.5-.3-.7-.2-.2-.4-.3-.7-.3-.7,0-1.1.2-1.3.7-.2.5-.3,1.1-.3,2v2.8c0,.4,0,.8-.3,1s-.4.3-.8.3-.6-.1-.8-.3c-.2-.2-.3-.5-.3-1v-5.9c0-.4,0-.7.3-.9s.4-.3.7-.3.5,0,.7.3c.2.2.3.5.3.8v.2c.4-.4.7-.7,1.1-.9.4-.2.9-.3,1.4-.3s1,.1,1.3.3c.4.2.7.5.9.9.3-.4.7-.7,1.1-.9s.8-.3,1.3-.3,1,.1,1.5.3c.4.2.7.5.9,1,.2.4.3,1,.3,1.8v4c0,.4,0,.8-.3,1-.2.2-.5.3-.8.3s-.6-.1-.8-.3c-.2-.2-.3-.5-.3-1v-3.5c0-.4,0-.8,0-1.1,0-.3-.1-.5-.3-.7-.2-.2-.4-.3-.8-.3s-.5,0-.8.2-.4.4-.6.6c-.2.3-.2,1-.2,1.8Z" stroke-width="0"/>
      <path d="M56.5,9.6h-4c0,.5,0,.9.3,1.2.2.4.4.6.7.8s.6.3,1,.3.5,0,.7,0c.2,0,.4-.1.6-.3.2-.1.4-.3.5-.4s.4-.3.6-.6c.1,0,.3-.1.5-.1s.4,0,.5.2c.1.1.2.3.2.5s0,.4-.2.7c-.1.2-.4.5-.7.7-.3.2-.7.4-1.1.6-.4.2-1,.2-1.5.2-1.3,0-2.4-.4-3.1-1.1-.7-.8-1.1-1.8-1.1-3.1s0-1.2.3-1.7c.2-.5.4-1,.8-1.3.3-.4.8-.7,1.3-.9.5-.2,1.1-.3,1.7-.3s1.5.2,2.1.5,1,.8,1.3,1.3c.3.5.4,1.1.4,1.6s-.1.9-.4,1c-.3.2-.7.2-1.3.2ZM52.4,8.4h3.7c0-.7-.2-1.2-.6-1.6-.3-.3-.8-.5-1.3-.5s-.9.2-1.3.5c-.3.4-.5.9-.6,1.6Z" stroke-width="0"/>
      <path d="M59.9,12V3.1c0-.4,0-.7.3-.9.2-.2.4-.3.7-.3s.6.1.8.3.3.5.3.9v8.9c0,.4,0,.7-.3.9s-.4.3-.8.3-.5-.1-.7-.3c-.2-.2-.3-.5-.3-.9Z" stroke-width="0"/>
      <path d="M68.2,11.9V3.2c0-.5.1-.8.3-1s.5-.3.8-.3.6.1.8.3c.2.2.3.6.3,1v8.7c0,.5-.1.8-.3,1-.2.2-.5.3-.8.3s-.6-.1-.8-.3c-.2-.2-.3-.6-.3-1Z" stroke-width="0"/>
      <path d="M74.7,6v.2c.4-.5.8-.8,1.2-1.1.4-.2.9-.3,1.5-.3s1,.1,1.5.4.7.6,1,1c.1.3.2.5.3.8,0,.3,0,.7,0,1.1v3.8c0,.4,0,.7-.3.9-.2.2-.4.3-.7.3s-.6-.1-.7-.3c-.2-.2-.3-.5-.3-.9v-3.4c0-.7,0-1.2-.3-1.6-.2-.4-.6-.5-1.1-.5s-.7.1-1,.3c-.3.2-.5.5-.7.9-.1.3-.2.9-.2,1.7v2.6c0,.4,0,.7-.3.9s-.4.3-.8.3-.5-.1-.7-.3c-.2-.2-.3-.5-.3-.9v-6c0-.4,0-.7.3-.9.2-.2.4-.3.7-.3s.3,0,.5.1.3.2.4.4c0,.2.1.4.1.6Z" stroke-width="0"/>
      <path d="M87.8,12.1v-.2c-.3.3-.6.6-.8.8-.3.2-.6.3-.9.5-.3.1-.7.2-1,.2s-1-.1-1.4-.3-.8-.5-1.1-.9-.5-.8-.7-1.4c-.2-.5-.2-1.1-.2-1.7,0-1.3.3-2.3.9-3,.6-.7,1.5-1.1,2.5-1.1s1.1.1,1.5.3c.4.2.8.5,1.2.9v-3c0-.4,0-.7.3-1,.2-.2.4-.3.7-.3s.6,0,.7.3c.2.2.3.5.3.9v9.1c0,.4,0,.7-.3.9-.2.2-.4.3-.7.3s-.5-.1-.7-.3c-.2-.2-.3-.5-.3-.9ZM83.7,9c0,.6,0,1,.3,1.4s.4.7.7.9.6.3,1,.3.7,0,1-.3c.3-.2.5-.5.7-.9.2-.4.3-.9.3-1.5s0-1-.3-1.4c-.2-.4-.4-.7-.7-.9-.3-.2-.6-.3-1-.3s-.7.1-1,.3c-.3.2-.5.5-.7.9s-.2.9-.2,1.4Z" stroke-width="0"/>
      <path d="M99.5,9.1c0,.6,0,1.2-.3,1.7s-.5,1-.8,1.3c-.4.4-.8.7-1.3.9-.5.2-1.1.3-1.7.3s-1.2-.1-1.7-.3-.9-.5-1.3-.9c-.4-.4-.6-.8-.8-1.3s-.3-1.1-.3-1.7,0-1.2.3-1.7c.2-.5.5-1,.8-1.3.4-.4.8-.7,1.3-.8.5-.2,1.1-.3,1.7-.3s1.2.1,1.7.3c.5.2.9.5,1.3.9.4.4.6.8.8,1.3.2.5.3,1.1.3,1.7ZM97.5,9.1c0-.8-.2-1.5-.6-2-.4-.5-.9-.7-1.5-.7s-.8.1-1.1.3-.5.5-.7.9c-.2.4-.2.9-.2,1.4s0,1,.2,1.4c.2.4.4.7.7.9.3.2.7.3,1.1.3.6,0,1.1-.2,1.5-.7s.6-1.1.6-2Z" stroke-width="0"/>
      <path d="M103,6v.2c.4-.5.8-.8,1.2-1.1.4-.2.9-.3,1.5-.3s1,.1,1.5.4.7.6,1,1c.1.3.2.5.3.8,0,.3,0,.7,0,1.1v3.8c0,.4,0,.7-.3.9-.2.2-.4.3-.7.3s-.6-.1-.7-.3c-.2-.2-.3-.5-.3-.9v-3.4c0-.7,0-1.2-.3-1.6-.2-.4-.6-.5-1.1-.5s-.7.1-1,.3c-.3.2-.5.5-.7.9-.1.3-.2.9-.2,1.7v2.6c0,.4,0,.7-.3.9s-.4.3-.8.3-.5-.1-.7-.3c-.2-.2-.3-.5-.3-.9v-6c0-.4,0-.7.3-.9.2-.2.4-.3.7-.3s.3,0,.5.1.3.2.4.4c0,.2.1.4.1.6Z" stroke-width="0"/>
      <path d="M116.2,9.6h-4c0,.5,0,.9.3,1.2.2.4.4.6.7.8s.6.3,1,.3.5,0,.7,0c.2,0,.4-.1.6-.3.2-.1.4-.3.5-.4s.4-.3.6-.6c.1,0,.3-.1.5-.1s.4,0,.5.2c.1.1.2.3.2.5s0,.4-.2.7c-.1.2-.4.5-.7.7-.3.2-.7.4-1.1.6-.4.2-1,.2-1.5.2-1.3,0-2.4-.4-3.1-1.1-.7-.8-1.1-1.8-1.1-3.1s0-1.2.3-1.7c.2-.5.4-1,.8-1.3.3-.4.8-.7,1.3-.9.5-.2,1.1-.3,1.7-.3s1.5.2,2.1.5,1,.8,1.3,1.3c.3.5.4,1.1.4,1.6s-.1.9-.4,1c-.3.2-.7.2-1.3.2ZM112.2,8.4h3.7c0-.7-.2-1.2-.6-1.6-.3-.3-.8-.5-1.3-.5s-.9.2-1.3.5c-.3.4-.5.9-.6,1.6Z" stroke-width="0"/>
      <path d="M126.3,10.6c0,.6-.1,1.1-.4,1.5-.3.4-.7.7-1.2.9-.5.2-1.2.3-2,.3s-1.4-.1-1.9-.3-.9-.5-1.2-.8-.4-.7-.4-1,0-.4.2-.6c.2-.2.4-.2.6-.2s.4,0,.5.2c.1.1.2.3.3.4.2.4.5.6.8.8.3.2.7.3,1.2.3s.8,0,1-.3c.3-.2.4-.4.4-.6,0-.4-.1-.6-.4-.8s-.7-.3-1.4-.5c-.7-.2-1.3-.4-1.7-.6-.4-.2-.8-.4-1.1-.8s-.4-.7-.4-1.2.1-.8.4-1.2c.2-.4.6-.7,1.1-.9.5-.2,1.1-.3,1.7-.3s1,0,1.4.2c.4.1.8.3,1.1.4.3.2.5.4.6.6s.2.4.2.7,0,.4-.2.6c-.2.2-.4.2-.7.2s-.4,0-.5-.2c-.1-.1-.3-.3-.5-.5-.2-.2-.3-.4-.6-.5s-.5-.2-.9-.2-.7,0-.9.2c-.2.2-.4.4-.4.6s0,.4.3.5c.2.1.4.3.7.3.3,0,.7.2,1.3.3.6.2,1.2.3,1.6.6.4.2.7.5.9.8.2.3.3.6.3,1Z" stroke-width="0"/>
      <path d="M129.1,3.9c-.3,0-.5,0-.7-.3-.2-.2-.3-.4-.3-.7s.1-.5.3-.7c.2-.2.5-.3.7-.3s.5,0,.7.3.3.4.3.7-.1.6-.3.7c-.2.2-.4.3-.7.3ZM130.1,6v6c0,.4,0,.7-.3.9-.2.2-.4.3-.7.3s-.5-.1-.7-.3c-.2-.2-.3-.5-.3-.9v-5.9c0-.4,0-.7.3-.9.2-.2.4-.3.7-.3s.6.1.7.3c.2.2.3.5.3.9Z" stroke-width="0"/>
      <path d="M137.5,12.1c-.5.4-1,.7-1.4.9-.5.2-1,.3-1.6.3s-1-.1-1.4-.3-.7-.5-.9-.8c-.2-.4-.3-.7-.3-1.2s.2-1,.5-1.4c.4-.4.8-.7,1.5-.8.1,0,.5,0,1-.2s1-.2,1.3-.3.8-.2,1.2-.3c0-.5-.1-.9-.3-1.2-.2-.3-.6-.4-1.2-.4s-.9,0-1.2.2c-.3.1-.5.4-.7.7-.2.3-.3.5-.4.6,0,0-.2.1-.5.1s-.4,0-.6-.2c-.2-.1-.3-.3-.3-.6,0-.4.1-.7.4-1.1.3-.3.7-.6,1.2-.8s1.2-.3,2-.3,1.6.1,2.1.3.9.6,1.1,1c.2.5.3,1.1.3,1.8s0,.9,0,1.2c0,.3,0,.7,0,1.1,0,.4,0,.8.2,1.2.1.4.2.7.2.8,0,.2,0,.4-.3.6-.2.2-.4.3-.7.3s-.4,0-.6-.3c-.2-.2-.4-.5-.7-.9ZM137.3,9.1c-.3.1-.7.2-1.3.4-.6.1-1,.2-1.2.3-.2,0-.4.2-.6.3-.2.2-.3.4-.3.7s.1.6.4.8c.2.2.5.3.9.3s.8,0,1.1-.3.6-.4.8-.7c.2-.3.3-.8.3-1.5v-.3Z" stroke-width="0"/>
    </g>
  </g>
</svg>