<?xml version="1.0" encoding="UTF-8"?>
<svg id="Layer_2" data-name="Layer 2" xmlns="http://www.w3.org/2000/svg" viewBox="0 0 754.16 174.95">
  <defs>
    <style>
      .cls-1 {
        fill: #012e6a;
      }

      .cls-1, .cls-2 {
        stroke-width: 0px;
      }

      .cls-2 {
        fill: #ed1c24;
      }
    </style>
  </defs>
  <g id="Layer_1-2" data-name="Layer 1">
    <g>
      <path class="cls-1" d="M100.35,77.25l-1.93.24V0h18.05v173.26h-16.6l-1.2-22.38c-3.69,6.74-9.19,12.43-16.48,17.09-7.3,4.65-16.33,6.98-27.07,6.98s-20.74-2.53-29-7.58c-8.26-5.05-14.68-12.23-19.25-21.54-4.57-9.3-6.86-20.21-6.86-32.73s2.29-23.38,6.86-32.61c4.57-9.22,10.99-16.4,19.25-21.54,8.26-5.13,17.93-7.7,29-7.7s20.85,2.49,28.4,7.46c7.54,4.97,13.15,11.15,16.84,18.53ZM19.49,113.1c0,13.8,3.53,24.75,10.59,32.85,7.06,8.1,16.68,12.15,28.88,12.15,7.54,0,14.28-1.76,20.21-5.29,5.93-3.53,10.63-8.66,14.08-15.4,3.45-6.74,5.17-14.84,5.17-24.3s-1.73-17.53-5.17-24.18c-3.45-6.65-8.14-11.79-14.08-15.4-5.94-3.61-12.67-5.41-20.21-5.41-12.03,0-21.62,4.05-28.76,12.15-7.14,8.1-10.71,19.05-10.71,32.85Z"/>
      <path class="cls-1" d="M204.54,173.26l-1.44-21.66c-3.37,7.38-8.34,13.12-14.92,17.21-6.58,4.09-14.92,6.14-25.03,6.14-8.66,0-16.04-1.36-22.14-4.09-6.1-2.73-10.79-6.62-14.08-11.67-3.29-5.05-4.93-11.03-4.93-17.93,0-10.11,3.77-18.41,11.31-24.91,7.54-6.5,18.45-10.47,32.73-11.91l37.06-4.09v-9.63c0-6.74-2.49-12.15-7.46-16.24-4.97-4.09-11.71-6.14-20.21-6.14s-15.28,1.92-20.82,5.78c-5.53,3.85-9.35,9.38-11.43,16.6l-16.36-5.78c3.21-10.59,9.1-18.85,17.69-24.79,8.58-5.93,19.05-8.9,31.4-8.9,14.28,0,25.39,3.65,33.33,10.95,7.94,7.3,11.91,17.21,11.91,29.72v81.34h-16.6ZM203.1,115.75l-37.3,4.33c-8.02.96-14.12,3.17-18.29,6.62-4.17,3.45-6.26,7.98-6.26,13.6s2.05,10.11,6.14,13.48c4.09,3.37,9.99,5.05,17.69,5.05,8.82,0,16.04-1.76,21.66-5.29,5.61-3.53,9.75-8.3,12.39-14.32,2.65-6.02,3.97-12.55,3.97-19.61v-3.85Z"/>
      <path class="cls-1" d="M232.22,52.94h16.6l1.2,17.33c3.53-5.77,8.3-10.38,14.32-13.84,6.02-3.45,13.19-5.17,21.54-5.17s16.24,2.05,23.22,6.14c6.98,4.09,12.39,10.15,16.24,18.17,3.69-8.18,9.3-14.28,16.84-18.29,7.54-4.01,15.88-6.02,25.03-6.02s16.92,1.97,23.82,5.9c6.9,3.93,12.27,9.79,16.12,17.57,3.85,7.78,5.78,17.53,5.78,29.24v69.3h-18.05v-67.14c0-12.51-2.69-22.02-8.06-28.52-5.38-6.5-13.04-9.75-22.98-9.75s-18.13,3.49-24.06,10.47c-5.94,6.98-8.9,17.29-8.9,30.92v64.01h-18.05v-67.14c0-12.51-2.57-22.02-7.7-28.52-5.14-6.5-12.67-9.75-22.62-9.75s-18.01,3.49-23.7,10.47c-5.7,6.98-8.54,17.29-8.54,30.92v64.01h-18.05V52.94Z"/>
      <path class="cls-1" d="M474.3,174.95c-11.23,0-21.22-2.73-29.96-8.18-8.75-5.45-15.6-12.91-20.57-22.38-4.97-9.46-7.46-20.29-7.46-32.49s2.49-22.14,7.46-31.28c4.97-9.14,11.79-16.32,20.45-21.54,8.66-5.21,18.53-7.82,29.6-7.82s20.65,2.41,29.24,7.22c8.58,4.81,15.28,11.47,20.09,19.97,4.81,8.5,7.06,18.21,6.74,29.12,0,1.77-.08,3.61-.24,5.54-.16,1.93-.32,4.01-.48,6.26h-93.13c.32,7.54,2.17,14.2,5.53,19.97,3.37,5.78,7.82,10.31,13.35,13.6,5.53,3.29,11.83,4.93,18.89,4.93,9.3,0,17.21-1.76,23.7-5.29,6.5-3.53,11.19-8.58,14.08-15.16l15.64,6.26c-4.81,10.11-11.79,17.85-20.93,23.22-9.15,5.38-19.82,8.06-32.01,8.06ZM510.15,103.72c.16-6.9-1.32-12.99-4.45-18.29-3.13-5.29-7.5-9.46-13.12-12.51-5.62-3.05-12.11-4.57-19.49-4.57-6.42,0-12.27,1.53-17.57,4.57-5.29,3.05-9.67,7.26-13.11,12.63-3.45,5.38-5.5,11.43-6.14,18.17h73.88Z"/>
      <path class="cls-1" d="M537.35,4.81h19.25v168.45h-19.25V4.81Z"/>
      <path class="cls-2" d="M573.44,4.81h19.25v168.45h-19.25V4.81Z"/>
      <path class="cls-2" d="M665.13,4.81c18.61,0,34.53,3.41,47.77,10.23,13.24,6.82,23.42,16.57,30.56,29.24,7.14,12.67,10.71,27.76,10.71,45.24s-3.57,32.25-10.71,44.76c-7.14,12.51-17.33,22.14-30.56,28.88-13.23,6.74-29.16,10.11-47.77,10.11h-55.59V4.81h55.59ZM665.13,156.42c22.94,0,40.27-5.85,51.98-17.57,11.71-11.71,17.57-28.15,17.57-49.33s-5.86-37.98-17.57-49.93c-11.71-11.95-29.04-17.93-51.98-17.93h-36.34v134.76h36.34Z"/>
    </g>
  </g>
</svg>