<?xml version="1.0" encoding="UTF-8"?>
<svg id="Layer_2" data-name="Layer 2" xmlns="http://www.w3.org/2000/svg" xmlns:xlink="http://www.w3.org/1999/xlink" viewBox="0 0 205.85 66.14">
  <defs>
    <style>
      .cls-1 {
        fill: url(#linear-gradient);
        stroke-width: 0px;
      }
    </style>
    <linearGradient id="linear-gradient" x1="0" y1="33.07" x2="205.85" y2="33.07" gradientUnits="userSpaceOnUse">
      <stop offset="0" stop-color="#512bdb"/>
      <stop offset="1" stop-color="#7d2bdb"/>
    </linearGradient>
  </defs>
  <g id="Layer_1-2" data-name="Layer 1">
    <path class="cls-1" d="M61.71,15.59h4.89l.28,5.17c.94-1.28,2.09-2.36,3.44-3.26,1.35-.9,2.83-1.52,4.46-1.88,1.63-.35,3.37-.37,5.21-.04v5.31c-1.98-.38-3.77-.38-5.35,0-1.58.38-2.94,1.09-4.07,2.13-1.13,1.04-2.01,2.35-2.62,3.93-.61,1.58-.92,3.41-.92,5.49v18.57h-5.31V15.59ZM94.3,51.52c-3.31,0-6.25-.8-8.82-2.41-2.58-1.61-4.6-3.8-6.06-6.59-1.46-2.79-2.2-5.98-2.2-9.57s.73-6.52,2.2-9.21c1.46-2.69,3.47-4.81,6.02-6.34,2.55-1.53,5.46-2.3,8.72-2.3s6.08.71,8.61,2.13c2.53,1.42,4.5,3.38,5.92,5.88,1.42,2.5,2.08,5.36,1.98,8.57,0,.52-.02,1.06-.07,1.63-.05.57-.1,1.18-.14,1.84h-27.43c.09,2.22.64,4.18,1.63,5.88s2.3,3.04,3.93,4c1.63.97,3.48,1.45,5.56,1.45,2.74,0,5.07-.52,6.98-1.56,1.91-1.04,3.3-2.53,4.15-4.46l4.61,1.84c-1.42,2.98-3.47,5.26-6.17,6.84-2.69,1.58-5.84,2.37-9.43,2.37ZM104.86,30.54c.05-2.03-.39-3.83-1.31-5.39-.92-1.56-2.21-2.79-3.86-3.69-1.65-.9-3.57-1.35-5.74-1.35-1.89,0-3.61.45-5.17,1.35-1.56.9-2.85,2.14-3.86,3.72-1.02,1.58-1.62,3.37-1.81,5.35h21.76ZM112.3,0h5.39v30.97h3.26l13.96-15.38h7.51l-16.72,17.72,16.79,17.72h-7.58l-13.96-15.45h-3.26v15.45h-5.39V0ZM163.4,51.02l-.43-6.38c-.99,2.17-2.46,3.86-4.39,5.07-1.94,1.2-4.39,1.81-7.37,1.81-2.55,0-4.72-.4-6.52-1.2-1.8-.8-3.18-1.95-4.15-3.44-.97-1.49-1.45-3.25-1.45-5.28,0-2.98,1.11-5.42,3.33-7.33,2.22-1.91,5.43-3.08,9.64-3.51l10.91-1.21v-2.83c0-1.98-.73-3.58-2.2-4.78-1.46-1.21-3.45-1.81-5.95-1.81s-4.5.57-6.13,1.7-2.75,2.76-3.37,4.89l-4.82-1.7c.94-3.12,2.68-5.55,5.21-7.3,2.53-1.75,5.61-2.62,9.25-2.62,4.2,0,7.48,1.08,9.81,3.22,2.34,2.15,3.51,5.07,3.51,8.75v23.95h-4.89ZM162.97,34.09l-10.98,1.28c-2.36.28-4.16.93-5.39,1.95-1.23,1.02-1.84,2.35-1.84,4s.6,2.98,1.81,3.97,2.94,1.49,5.21,1.49c2.6,0,4.72-.52,6.38-1.56,1.65-1.04,2.87-2.44,3.65-4.22.78-1.77,1.17-3.7,1.17-5.78v-1.13ZM176.3,43.87l.57-.07v21.4h-5.31V15.59h4.89l.35,6.59c1.09-1.98,2.69-3.66,4.82-5.03,2.13-1.37,4.79-2.06,8.01-2.06s5.83.74,8.29,2.23c2.46,1.49,4.39,3.59,5.81,6.31,1.42,2.72,2.13,5.94,2.13,9.67s-.67,6.89-2.02,9.6c-1.35,2.72-3.24,4.83-5.67,6.34-2.43,1.51-5.28,2.27-8.54,2.27s-6.21-.73-8.43-2.2c-2.22-1.46-3.85-3.28-4.89-5.46ZM200.11,33.31c0-4.06-1.05-7.29-3.15-9.67-2.1-2.39-4.92-3.58-8.47-3.58-2.22,0-4.22.52-5.99,1.56-1.77,1.04-3.15,2.55-4.15,4.54s-1.49,4.37-1.49,7.16.5,5.1,1.49,7.09,2.37,3.51,4.15,4.57c1.77,1.06,3.77,1.59,5.99,1.59,3.54,0,6.37-1.19,8.47-3.58,2.1-2.38,3.15-5.61,3.15-9.67ZM55.38,23.73c-1.42-2.77-3.35-4.91-5.78-6.41-2.44-1.51-5.18-2.26-8.2-2.26-4.94,0-8.9,1.7-11.86,5.11-2.96,3.41-4.45,7.96-4.45,13.64s1.47,10.31,4.4,13.69c2.93,3.37,6.9,5.06,11.91,5.06,3.02,0,5.76-.73,8.2-2.21,2.43-1.47,4.36-3.61,5.78-6.41,1.41-2.81,2.12-6.19,2.12-10.13s-.71-7.3-2.12-10.08ZM52.8,41.08c-1.04,2.02-2.44,3.55-4.22,4.61-1.77,1.06-3.76,1.58-5.97,1.58-3.65,0-6.54-1.21-8.68-3.63-2.13-2.43-3.2-5.7-3.2-9.83s1.08-7.34,3.24-9.79c2.16-2.45,5.04-3.67,8.64-3.67,2.21,0,4.2.54,5.97,1.62,1.78,1.08,3.18,2.61,4.22,4.6,1.03,2,1.54,4.41,1.54,7.24s-.51,5.26-1.54,7.27ZM15.05,15.06C6.74,15.06,0,21.8,0,30.11v22.45h5.4v-22.85c0-5.33,4.32-9.65,9.65-9.65s9.65,4.32,9.65,9.65v22.85h5.4v-22.45c0-8.31-6.74-15.05-15.05-15.05ZM36.35,66.14s6.62-4.16,11.78-7.96c9.69-7.14,9.52-16.2,9.52-16.2,0,0-.84,8.49-10.15,12.12-6.25,2.44-9.33,3.16-9.33,3.16l-1.82,8.87ZM57.65,23.97v-8.91h-6.15l6.15,8.91Z"/>
  </g>
</svg>