<svg xmlns="http://www.w3.org/2000/svg" viewBox="0 0 164.33 40.2"><defs><style>.cls-1{fill:#fff;}</style></defs><g id="Layer_2" data-name="Layer 2"><g id="Logo_Black" data-name="Logo Black"><path class="cls-1" d="M41.74,30.41l-.92-.48c.3-.26.6-.47.58-.91l-.38.16c.18-.23.29-.4.44-.61-.15-.09-.3-.25-.47-.28A6.12,6.12,0,0,0,39.53,28a55.79,55.79,0,0,0-8.07.62c-.72.12-1.44.19-2.18.27l.36-.17c-.38.11,0-.25-.17-.28l-.78.15.61.28-2.07.46-1.1.17a3.81,3.81,0,0,1-1.47-.17l-.82.24a.25.25,0,0,1,0,.12l.44,0s-.06.07-.08.07c-1.25.36-2.48.72-3.73,1.1-1.1.32-2.18.63-3.26,1A76.53,76.53,0,0,0,6.6,36.26a35.2,35.2,0,0,0-4,2.28c-.34.22-.68.49-1,.75.34.48-.19.61-.25.91A2,2,0,0,1,0,39.69a2,2,0,0,1,.85-1.91c.66-.48,1.33-1,2-1.39A39.6,39.6,0,0,1,7.15,34.1,2.45,2.45,0,0,0,8.29,33c.49-1,1-2,1.46-3,.36-.74.7-1.48,1.06-2.21a3.15,3.15,0,0,1,.22-.33,4,4,0,0,1,.21-.58c1.48-3.19,3-6.39,4.47-9.57.29-.59.63-1.16.91-1.76.68-1.44,1.35-2.88,2-4.34.27-.59.46-1.21.72-1.82.74-1.74,1.52-3.49,2.22-5.25C22,3.07,22.31,2,22.63.93c.07-.23.3-.32.28-.63l.25.61c.15-.28.06-.68.34-.91.15.09.27.19.4.27a1.28,1.28,0,0,1,0,1.08,34.48,34.48,0,0,1-1.73,4.81q-2.64,6-5.36,12c-1.38,3.05-2.8,6.06-4.24,9.09-.87,1.86-1.78,3.7-2.71,5.59.43.1.72-.28,1.12-.26l.13.22L12.64,32v0A9.72,9.72,0,0,0,15,31c.06,0,.06-.15.1-.26,2.06-.74,4.19-1.38,6.35-1.95s4.31-1,6.51-1.35a58.34,58.34,0,0,1,6.6-.83l-1,.34V27c.36-.06.7-.08,1-.16.76-.13,1.52-.3,2.28-.43a5.16,5.16,0,0,1,1.11,0c.61,0,1.2.1,1.8.19a4.32,4.32,0,0,1,2.22.74c0,.43.46.49.7.74C43.07,29.29,42.71,30.14,41.74,30.41ZM10.69,29.25c.19-.15.38-.3.29-.59Zm.36-1.84a3.2,3.2,0,0,0,.08.48,3.35,3.35,0,0,0,.45-1.31C11.37,26.88,11.22,27.15,11.05,27.41Zm3.6,5c-.41-.33-.43-.34-.72-.08a2.1,2.1,0,0,1-.91.53c-.13,0-.26.11-.43.17.05.06.09.1.11.1Zm9.06-2.77-1.12.25A1.38,1.38,0,0,0,23.71,29.65Zm5.72-1.42a6.14,6.14,0,0,0-2.84.45A13,13,0,0,0,29.43,28.23Zm3.22-.89c-.28-.29-.42.09-.61.07a.85.85,0,0,0-.6.19,6.86,6.86,0,0,0,1.12-.11S32.61,27.41,32.65,27.34Zm6.75.47s0-.09,0-.15a37.17,37.17,0,0,0-5.86.49A14.13,14.13,0,0,0,35,28.06a16.94,16.94,0,0,1,2.26-.19c.34,0,.7,0,1.06,0S39,27.83,39.4,27.81Zm1.64,0a.69.69,0,0,0-.81-.17Zm.78,1-.13.89C42.05,29.29,42.05,29.21,41.82,28.78Zm.76-.32c-.19-.12-.27-.38-.51-.23a4,4,0,0,0,.15.66.89.89,0,0,0,.21.32C42.48,29,42.52,28.7,42.58,28.46Zm0,.89s-.08-.06-.13-.1c0,.17-.06.34-.1.51A1,1,0,0,0,42.58,29.35Z"/><path class="cls-1" d="M25.39,25.27a3,3,0,0,1,.06-.85,6.56,6.56,0,0,1,1.33-2.88c.34-.4.62-.81,1-1.19a3.42,3.42,0,0,1,.82-.59,1.15,1.15,0,0,0,.49-.51,1.46,1.46,0,0,1,1.29-.78c.32,0,.51.23.6.44s.42.19.5.3.3.51.17.78a1.19,1.19,0,0,0,0,.85,6.26,6.26,0,0,1,.15,2.2,3.88,3.88,0,0,1-.63,1.63,4.52,4.52,0,0,1-1.7,1.66,2.17,2.17,0,0,0-1.38,0,3.84,3.84,0,0,1-.67.25A1.55,1.55,0,0,1,25.39,25.27Zm2.11-2.8a3.43,3.43,0,0,0,.85-.85,3.29,3.29,0,0,1,.59-.59c.2-.19.43-.38.64-.59a7.38,7.38,0,0,0,.51-.62l-.15-.21c-.28.19-.55.36-.81.55a23.45,23.45,0,0,0-1.79,1.68,5.05,5.05,0,0,0-1.09,1.88A4.26,4.26,0,0,1,27.5,22.47Zm.77,3.22a1.87,1.87,0,0,0,1.18-.76,7,7,0,0,0,1-1.32s.13,0,.23,0a2.45,2.45,0,0,0,.21-1.65c-.16.44-.29.81-.4,1.19a4.9,4.9,0,0,0-.17-2.92l-.08.37a.76.76,0,0,1-.09-.18h-.1A11.88,11.88,0,0,0,28.22,22a6.88,6.88,0,0,0-1.08,1.5,2.31,2.31,0,0,0-.38,1.82l.93.15a.07.07,0,0,1,0,.06h-.84a.55.55,0,0,0,.7.34C27.78,25.82,28,25.73,28.27,25.69Z"/><path class="cls-1" d="M41.84,6.67a3,3,0,0,0-.68,1.14c-.46,1-.91,2.08-1.39,3.12-.21.46-.47.91-.72,1.37a2.69,2.69,0,0,1-.24.24A3,3,0,0,1,38.43,14l-1.71,3.6c-.07.13-.13.3-.22.48a2,2,0,0,1,.56,0,15.14,15.14,0,0,1,1.52.53,1,1,0,0,1,.55,1,2.81,2.81,0,0,1-.67,1.65,5.07,5.07,0,0,1-1.81,1.25,2.92,2.92,0,0,0-.38.15A10.75,10.75,0,0,0,37,23.78c.75.91,1.53,1.82,2.31,2.71.21.26.47.51.34.91s-.34.47-.67.34c-.18-.1-.34-.23-.56-.15s-.21-.12-.31-.19c-.22-.25-.43-.52-.68-.78s-.45-.7-.83-.95a.37.37,0,0,1-.12-.17,2.3,2.3,0,0,0-.58-1c-.17-.21-.25-.53-.61-.55-.06,0-.11-.12-.15-.19-.15-.27-.3-.51-.42-.78a6.87,6.87,0,0,1-.26-.89,4.42,4.42,0,0,0-.33.55A11.52,11.52,0,0,1,33.1,25a2.49,2.49,0,0,0-.36.89c-.05.4-.21.47-.68.4l.12-.44-.65.36a1,1,0,0,1,0-1,6.33,6.33,0,0,0,.55-1.37c.11-.37.34-.73.49-1.11a5.08,5.08,0,0,0,.17-.51c.17-.31.15-.46-.11-.78a1.88,1.88,0,0,1,.66-1,4.63,4.63,0,0,0,1.12-1.6c1.23-2.61,2.5-5.21,3.71-7.84.68-1.44,1.29-2.94,1.93-4.39.16-.38.36-.72.55-1.08.33.11.14.39.29.56a5.09,5.09,0,0,1,.42-.49c.07.38-.27.72.15,1l.34-.05C41.84,6.57,41.86,6.65,41.84,6.67ZM32.29,25.56l-.1,0v.23C32.23,25.71,32.25,25.63,32.29,25.56Zm3.45-5.4a1.06,1.06,0,0,0-.63.85,3,3,0,0,0,2.35-1.38A5.86,5.86,0,0,0,35.74,20.16Z"/><path class="cls-1" d="M42.35,26.14a.83.83,0,0,0,.11-.17c-.38-.26-.59-.7-1.06-.85-.11,0-.19-.19-.28-.28a4.21,4.21,0,0,1-.38-.48.62.62,0,0,1-.1-.24c0-.17,0-.32,0-.49-.36,0-.78.28-1.1-.17,0-.14,0-.31,0-.5a3.79,3.79,0,0,0,.4-.3l0,0a1.93,1.93,0,0,0,1.18-.19,1,1,0,0,0,.32-.21,5.71,5.71,0,0,1,1.23-1,4.35,4.35,0,0,0,1.06-1,1.74,1.74,0,0,1,.4-.41c.32-.25.64-.48,1-.69s.81-.49,1.23-.72a.75.75,0,0,1,.79,0c.17.1.34.17.5.25-.08.06-.27-.11-.25.21l.25-.21A.78.78,0,0,1,48,19.89a2.72,2.72,0,0,1-.64.86,14.09,14.09,0,0,1-2.46,1.72,24.74,24.74,0,0,1-2.66,1.17l-.28.12c0,1,.59,1.46,2,1.57-.06-.06-.08-.11-.14-.17A9.57,9.57,0,0,0,45,24.93c.36-.09.72-.26,1.12-.4.15.1.34.23.53.38a.56.56,0,0,1,0,1,4.34,4.34,0,0,1-2.27.63h-.69A3.83,3.83,0,0,1,42.35,26.14Zm-.76-2.29c-.17.08-.11.19-.06.34C41.55,24,41.57,24,41.59,23.85Zm3.52-3,0-.23A8.63,8.63,0,0,0,43.22,22,6,6,0,0,0,45.11,20.82Z"/><path class="cls-1" d="M55.93,20.71a1.18,1.18,0,0,1-.83,1.06c-.08-.11-.17-.23-.25-.36l-.09,0c-.17,0-.36.17-.53,0,0,0-.15,0-.23.08a7.35,7.35,0,0,0-.8.39,8.32,8.32,0,0,0-1.61,1.22v0a7.21,7.21,0,0,1-.53.74c-.26.34-.58.62-.87.94a3.41,3.41,0,0,0-.47.72,14,14,0,0,1-.82,1.46l-.68-.38c-.08-.28-.17-.6-.25-.94.8-2.16,2-4.19,2.62-6.44l.59.28c0,.11,0,.25,0,.4.17,0,.34.05.57.09-.1.42-.19.8-.31,1.23l.34-.24a5.11,5.11,0,0,1,2.37-1.18,2.21,2.21,0,0,1,.67,0,.41.41,0,0,1,.3.17c.13.13.23.32.36.47s.19,0,.28.08A.29.29,0,0,1,55.93,20.71ZM51.59,23a1.67,1.67,0,0,1-.05-.19A5.3,5.3,0,0,0,50.29,24c-.08.08-.08.23-.14.48.44-.48.76-.87,1.12-1.25A1.93,1.93,0,0,1,51.59,23ZM55,20a.69.69,0,0,0-.7-.1,5.67,5.67,0,0,0-2.25,1C53.09,20.61,54,20.33,55,20Z"/><path class="cls-1" d="M88.82,12.64l-.32.55c-.48.19-.57.09-.89-.36l-.25.05c-.13-.24-.24-.51-.38-.77a2.38,2.38,0,0,0-1.13-.27,11,11,0,0,0-3.13.29,35.94,35.94,0,0,0-5.06,1.53c-.42.17-.85.23-1.27.38s-1,.45-1.55.68a34.1,34.1,0,0,0-3,1.69A50.24,50.24,0,0,0,60,25.84a22.6,22.6,0,0,0-2.88,3.92,9.56,9.56,0,0,0-1.08,3,4.43,4.43,0,0,0,0,1.85,1.68,1.68,0,0,0,1.08,1.23,6.91,6.91,0,0,0,2.26.42,18,18,0,0,0,5.64-.76c1.4-.39,2.79-.87,4.17-1.32l.51-.19.17.3a36.85,36.85,0,0,0,6.6-3.2c-.86.21-1.54.83-2.39,1L74.06,32a1,1,0,0,1,.23-.15,46.71,46.71,0,0,0,4.38-2.69c1.13-.78,2.23-1.61,3.31-2.51a7.39,7.39,0,0,1,1.21-.94.58.58,0,0,0,.21-.23,3.12,3.12,0,0,1,.74-.91c.59-.64,1.18-1.29,1.74-1.95a3.59,3.59,0,0,0,.4-.59.7.7,0,0,0-.59,0l-.56.17c-.19-.32-.38-.61-.53-.87,0-.74.49-.89,1-1a1.56,1.56,0,0,1,1.42.38.65.65,0,0,1,.25.46,2,2,0,0,0,.17.49A10.59,10.59,0,0,0,87.27,23a1.06,1.06,0,0,1-.17.47,10.08,10.08,0,0,1-1.52,1.94,48.26,48.26,0,0,1-7.24,6.06,10.22,10.22,0,0,1-1.55.78,3.5,3.5,0,0,0-.42.24A21,21,0,0,1,71.92,35l-2,.85a1.59,1.59,0,0,1-1,.1l1.54-.65a2.52,2.52,0,0,1-.42-.15c-.51.15-1,.33-1.48.44a1.93,1.93,0,0,0-1,.7c.14,0,.27-.09.44-.13s.09.11.19.22a2.32,2.32,0,0,1-.4.19,17.44,17.44,0,0,1-3.83,1,7.35,7.35,0,0,1-1.42,0,2.09,2.09,0,0,0-.77.14A6.65,6.65,0,0,1,56.23,37,2.51,2.51,0,0,1,55,35.52a1,1,0,0,0,.23.14c-.11-.23-.13-.46-.25-.55s-.18-.29-.26-.44a4.08,4.08,0,0,1,0-2.82A12,12,0,0,1,56.48,28a15.94,15.94,0,0,1,1.46-1.82,9.41,9.41,0,0,0,1-1c.14-.21.23-.43.36-.64a4.56,4.56,0,0,1,.44-.67c.38-.41.78-.85,1.19-1.21s1-.74,1.44-1.1l.19.14c.36-.48,1-.71,1.23-1.27l-.13-.29a42.46,42.46,0,0,1,7.32-5c1.11-.55,2.27-1,3.4-1.5a2.58,2.58,0,0,0,.44-.22,19.6,19.6,0,0,1,5.74-2.5,6.81,6.81,0,0,1,1.92-.19,2.19,2.19,0,0,0,1-.35,1.83,1.83,0,0,1,.59-.22,6.52,6.52,0,0,1,2.53.07,3.31,3.31,0,0,1,2.14,2.14ZM62.35,37a2.88,2.88,0,0,0,1.33-.23A2.37,2.37,0,0,0,62.35,37Zm1.39-.25c.28.06.3.06.66-.11C64.1,36.7,63.89,36.57,63.74,36.75Zm2.82-.3.45,0a.06.06,0,0,0,0,0l-.43,0Zm7.29-21.63-.26-.08a2.29,2.29,0,0,1,.07-.28l-.09-.08A49.7,49.7,0,0,0,68,17.85a.9.9,0,0,0,.22-.06l1-.53a5.85,5.85,0,0,1,2-.85.39.39,0,0,0,.24-.12c.53-.32,1.08-.66,1.61-1Zm5,15.32a17,17,0,0,0,3.73-2.91C81.32,28.19,80.09,29.16,78.84,30.14Z"/><path class="cls-1" d="M88.84,26.68A4,4,0,0,1,88.72,25,9.36,9.36,0,0,1,90,21.39c.13-.25.23-.49.36-.74a2.41,2.41,0,0,1,.57-.79c.07.07.36.15.45.22-.19.17-.38.31-.62.51l.21.14c.07-.08.15-.15.21-.23s.24,0,.28-.11.15-.18.26-.12c.12.34.1.44-.13.65a1.34,1.34,0,0,0-.24.32c-.14.21-.25.45-.4.68l-.08-.21c-.26.55-.53,1-.74,1.56a1.68,1.68,0,0,0,0,.6,1.76,1.76,0,0,1,0,.23,3,3,0,0,0-.19,1.06,3.32,3.32,0,0,0,.13,1.36.36.36,0,0,0,.07.17.58.58,0,0,0,.55-.32.19.19,0,0,0-.11,0l.57-.49c.13.13-.17.19-.19.38a2.09,2.09,0,0,0,.72,0c-.13.15-.21.3-.3.4s-.48.34-.69.51l-.13.09A1.12,1.12,0,0,1,88.84,26.68Zm3-8.25c-.09,0-.19.06-.23,0a.21.21,0,0,1-.13-.21,1.24,1.24,0,0,1,.42-1c.28,0,.41.21.49.51.11-.21.25-.28.46-.19,0,.17.13.34.05.53a1.82,1.82,0,0,1-.53.57C92.15,18.85,92,18.72,91.81,18.43Z"/><path class="cls-1" d="M101.36,20.71a1.18,1.18,0,0,1-.83,1.06,3.27,3.27,0,0,1-.25-.36l-.1,0c-.17,0-.36.17-.53,0,0,0-.15,0-.22.08a7.35,7.35,0,0,0-.8.39A7.76,7.76,0,0,0,97,23.06v0a7.21,7.21,0,0,1-.53.74c-.27.34-.59.62-.87.94a3.41,3.41,0,0,0-.47.72,16,16,0,0,1-.82,1.46l-.68-.38c-.08-.28-.17-.6-.25-.94.8-2.16,1.95-4.19,2.62-6.44l.58.28c0,.11,0,.25,0,.4.17,0,.34.05.56.09-.09.42-.18.8-.3,1.23l.34-.24a5.06,5.06,0,0,1,2.37-1.18,2.17,2.17,0,0,1,.66,0,.41.41,0,0,1,.31.17c.13.13.22.32.36.47s.19,0,.28.08A.29.29,0,0,1,101.36,20.71ZM97,23a1.45,1.45,0,0,1-.06-.19A5.72,5.72,0,0,0,95.71,24c-.07.08-.07.23-.13.48.44-.48.76-.87,1.12-1.25A1.59,1.59,0,0,1,97,23Zm3.43-3a.69.69,0,0,0-.7-.1,5.65,5.65,0,0,0-2.26,1C98.52,20.61,99.45,20.33,100.45,20Z"/><path class="cls-1" d="M103.57,26.14a.83.83,0,0,0,.12-.17c-.38-.26-.59-.7-1.06-.85-.12,0-.19-.19-.29-.28s-.26-.32-.38-.48a.78.78,0,0,1-.09-.24c0-.17,0-.32,0-.49-.36,0-.78.28-1.1-.17,0-.14,0-.31,0-.5s.27-.19.4-.3l0,0a1.9,1.9,0,0,0,1.17-.19.93.93,0,0,0,.33-.21,5.48,5.48,0,0,1,1.23-1,4.54,4.54,0,0,0,1.06-1,1.42,1.42,0,0,1,.4-.41q.48-.37,1-.69c.4-.26.82-.49,1.23-.72a.77.77,0,0,1,.8,0c.17.1.34.17.49.25-.07.06-.26-.11-.24.21l.24-.21a.79.79,0,0,1,.42,1.19,2.72,2.72,0,0,1-.64.86,14.16,14.16,0,0,1-2.47,1.72,23.75,23.75,0,0,1-2.65,1.17c-.09,0-.21.08-.28.12,0,1,.58,1.46,2,1.57a1.92,1.92,0,0,0-.13-.17,9.57,9.57,0,0,0,1.14-.23c.36-.09.72-.26,1.12-.4.15.1.34.23.53.38a.56.56,0,0,1,0,1,4.35,4.35,0,0,1-2.28.63h-.68A4,4,0,0,1,103.57,26.14Zm-.75-2.29c-.17.08-.12.19-.06.34C102.78,24,102.8,24,102.82,23.85Zm3.52-3-.06-.23A8.57,8.57,0,0,0,104.45,22,6,6,0,0,0,106.34,20.82Z"/><path class="cls-1" d="M119.94,10a2.7,2.7,0,0,0-.36-.09l0,.09c-.46.85-.91,1.69-1.39,2.52-.7,1.25-1.42,2.46-2.14,3.7a1.09,1.09,0,0,0-.07.24v0l-.27.34c-.42.69-.81,1.37-1.21,2.05a4.73,4.73,0,0,0-.25.62l-.3,1a.8.8,0,0,0,.49-.21,4.3,4.3,0,0,1,1.82-.72,1.63,1.63,0,0,1,1.19.31,2.27,2.27,0,0,0,.31.17,1.62,1.62,0,0,1,.91,1.34,4.34,4.34,0,0,1-.46,2.62,7.1,7.1,0,0,1-3.43,3.65,4.46,4.46,0,0,1-.89.31,1.36,1.36,0,0,1-.93,0,1.67,1.67,0,0,0-.34,0,3.11,3.11,0,0,1-.7-.15,4.54,4.54,0,0,1-1.53-1.16,1.76,1.76,0,0,1,.07-2.08,1.64,1.64,0,0,1,.5-.29,1.4,1.4,0,0,1,.39-.09,1.4,1.4,0,0,1,.06-1.17,9.6,9.6,0,0,1,.47-1q2.7-5.24,5.44-10.46c.4-.76.8-1.5,1.21-2.25a2,2,0,0,1,.61-.74c.27.22.72.19.87.64l-.51.12C119.66,9.47,120.17,9.51,119.94,10Zm-8.77,15.33a.07.07,0,0,0,0-.06l-.4.12a.07.07,0,0,1,0,.07C110.92,25.44,111.06,25.41,111.17,25.37Zm4.91-4.32a7.74,7.74,0,0,0-2.6,1.8c-.32.36-.64.72-1,1.06-.1.09-.19.15-.29.23a.13.13,0,0,1-.09,0,1.33,1.33,0,0,0,0-.82,10.58,10.58,0,0,0-.81,1c-.06.09-.11.19-.27.19s-.17.07-.28.13h.72v.23c.27,0,.25-.42.55-.36a.6.6,0,0,1,.06.81c-.27.13-.7,0-.87.38a1.55,1.55,0,0,0,1,.93,1.45,1.45,0,0,1,.26.11c.33.15.65.32,1,0a.55.55,0,0,1,.28-.09,2.46,2.46,0,0,0,1-.67c.41-.47.85-.91,1.27-1.38a4.48,4.48,0,0,0,1-1.36s0,0,.06,0l.11.05c-.11-.26.08-.43.17-.62l.06.62a2.92,2.92,0,0,0,.13-.39c.08-.38.15-.74.21-1.12a.7.7,0,0,0-.61-.85A2.17,2.17,0,0,0,116.08,21.05Zm-4.91,4.45c-.26.21-.26.21-.06.47Zm.8-2.41c.22-.18.41-.32.43-.64A1,1,0,0,0,112,23.09Zm1-1.89.08.06c.11-.12.26-.19.17-.46Zm.59.27a.49.49,0,0,0-.13.51c.09-.14.11-.21.17-.25a6.58,6.58,0,0,1,1.74-1.15,6.4,6.4,0,0,0,.85-.46,2.49,2.49,0,0,0-.6.09A6.36,6.36,0,0,0,113.52,21.47Zm2-.67c-.23.12-.4.19-.57.27C115.4,21.11,115.4,21.11,115.55,20.8Zm.72-.7.32,0s0,0,0-.07Zm.83.44c.13,0,.25.05.36.09C117.31,20.48,117.31,20.48,117.1,20.54ZM118.48,10c-.07.15-.26.27-.19.55C118.39,10.38,118.54,10.25,118.48,10Z"/><path class="cls-1" d="M119.79,25.27a3,3,0,0,1,.06-.85,6.44,6.44,0,0,1,1.32-2.88c.35-.4.63-.81,1-1.19a3.57,3.57,0,0,1,.81-.59,1.17,1.17,0,0,0,.5-.51,1.44,1.44,0,0,1,1.28-.78.6.6,0,0,1,.61.44c.23.13.42.19.49.3s.31.51.17.78a1.24,1.24,0,0,0,0,.85,6.27,6.27,0,0,1,.16,2.2,4,4,0,0,1-.63,1.63,4.59,4.59,0,0,1-1.7,1.66,2.2,2.2,0,0,0-1.39,0,3.46,3.46,0,0,1-.66.25A1.55,1.55,0,0,1,119.79,25.27Zm2.1-2.8a3.31,3.31,0,0,0,.86-.85,3.59,3.59,0,0,1,.58-.59c.21-.19.44-.38.65-.59a7.38,7.38,0,0,0,.51-.62l-.15-.21-.82.55c-.68.45-1.13,1.15-1.78,1.68a5.07,5.07,0,0,0-1.1,1.88A4.51,4.51,0,0,1,121.89,22.47Zm.78,3.22a1.9,1.9,0,0,0,1.18-.76,7,7,0,0,0,1-1.32s.13,0,.22,0a2.34,2.34,0,0,0,.21-1.65c-.15.44-.28.81-.4,1.19a4.82,4.82,0,0,0-.17-2.92l-.07.37a.81.81,0,0,1-.1-.18h-.09A12.42,12.42,0,0,0,122.61,22a7.62,7.62,0,0,0-1.08,1.5,2.35,2.35,0,0,0-.38,1.82l.93.15a.07.07,0,0,1,0,.06h-.83a.55.55,0,0,0,.7.34C122.18,25.82,122.4,25.73,122.67,25.69Z"/><path class="cls-1" d="M133.75,22.85c-.34,1.29-.66,2.56-1,3.84l-.23.9a1,1,0,0,0,0,.51.91.91,0,0,1-.3,1,.56.56,0,0,1-.74-.09.45.45,0,0,0-.23-.13c-.36-.18-.45-.35-.38-.72l.5-2c.13-.57.28-1.12.45-1.69a1.84,1.84,0,0,1,.38-.94.32.32,0,0,0,.09-.23,4,4,0,0,0,.18-.68,4.17,4.17,0,0,0,0-.61,1.36,1.36,0,0,0-.84.15,11.87,11.87,0,0,0-4,3.05,1.07,1.07,0,0,1-.38.32c-.28.12-.44,0-.42-.32s.16-.76.25-1.14a9.72,9.72,0,0,1,1-2.23l.51-1-.21,0A7.72,7.72,0,0,1,129.43,19a2.64,2.64,0,0,1,.29.29l-.48.43a1.44,1.44,0,0,1,.06,1.1c.29-.41.59-.76.87-1.19a1,1,0,0,1,0,.25c0,.07-.09.17-.07.18.24.38,0,.61-.25.86a1.88,1.88,0,0,0-.3.64l1-.51c-.08.21-.11.28-.17.45.28-.09.55-.19.83-.3A1.28,1.28,0,0,0,131,21a1.42,1.42,0,0,1,2.35,0A2.16,2.16,0,0,1,133.75,22.85Zm-5.11-2.39a1.39,1.39,0,0,1-.15.19s0,.08,0,.13S128.75,20.65,128.64,20.46Z"/><path class="cls-1" d="M134.59,27.45s-.08.06-.12.1a.94.94,0,0,1,0-1.56c.1.06.19.14.31.23l.38-.25c.07-.2.13-.41.2-.62l.1-.08a1.36,1.36,0,0,1,.53,1.46,1.45,1.45,0,0,1-.93,1.14Z"/><path class="cls-1" d="M137.33,26.68a3.86,3.86,0,0,1-.11-1.69,9,9,0,0,1,1.31-3.6c.13-.25.22-.49.36-.74a2.41,2.41,0,0,1,.57-.79c.07.07.35.15.45.22-.19.17-.38.31-.63.51l.21.14a2.19,2.19,0,0,0,.21-.23c.08-.11.25,0,.29-.11s.15-.18.26-.12c.11.34.09.44-.13.65a1.37,1.37,0,0,0-.25.32c-.13.21-.24.45-.4.68l-.07-.21c-.27.55-.53,1-.74,1.56a1.47,1.47,0,0,0,0,.6.88.88,0,0,1,0,.23,3.48,3.48,0,0,0-.19,1.06,3.51,3.51,0,0,0,.13,1.36.3.3,0,0,0,.08.17.58.58,0,0,0,.55-.32.22.22,0,0,0-.11,0l.56-.49c.14.13-.17.19-.18.38a2.08,2.08,0,0,0,.72,0c-.14.15-.21.3-.31.4s-.47.34-.68.51l-.13.09A1.13,1.13,0,0,1,137.33,26.68Zm3-8.25c-.1,0-.19.06-.23,0a.2.2,0,0,1-.13-.21,1.26,1.26,0,0,1,.41-1c.29,0,.42.21.5.51.11-.21.24-.28.45-.19a.87.87,0,0,1,.06.53,1.82,1.82,0,0,1-.53.57C140.65,18.85,140.48,18.72,140.31,18.43Z"/><path class="cls-1" d="M148.17,22.85c-.34,1.29-.66,2.56-1,3.84l-.22.9a.89.89,0,0,0,0,.51.92.92,0,0,1-.3,1,.56.56,0,0,1-.74-.09.49.49,0,0,0-.23-.13c-.36-.18-.46-.35-.38-.72l.49-2c.14-.57.29-1.12.46-1.69a1.69,1.69,0,0,1,.38-.94.36.36,0,0,0,.09-.23,4,4,0,0,0,.17-.68,3.13,3.13,0,0,0,0-.61,1.32,1.32,0,0,0-.83.15,11.78,11.78,0,0,0-4,3.05,1.07,1.07,0,0,1-.38.32c-.29.12-.44,0-.42-.32a11.63,11.63,0,0,1,.25-1.14,9.69,9.69,0,0,1,.94-2.23l.51-1-.2,0A7.72,7.72,0,0,1,143.85,19a2.6,2.6,0,0,1,.28.29c-.17.15-.32.28-.47.43a1.49,1.49,0,0,1,.06,1.1c.28-.41.59-.76.87-1.19a1,1,0,0,1,0,.25c0,.07-.1.17-.08.18.25.38,0,.61-.24.86a1.9,1.9,0,0,0-.31.64l1-.51c-.07.21-.11.28-.17.45.29-.09.55-.19.84-.3a1.76,1.76,0,0,0-.23-.15,1.42,1.42,0,0,1,2.35,0A2.16,2.16,0,0,1,148.17,22.85Zm-5.12-2.39a.66.66,0,0,1-.15.19s0,.08,0,.13S143.17,20.65,143.05,20.46Z"/><path class="cls-1" d="M148.79,27a7.54,7.54,0,0,0-.51-1.61c-.07-.18-.07-.36-.28-.48-.06,0-.08-.09-.1-.17a2.9,2.9,0,0,1,.25-2.14,2.49,2.49,0,0,0,.19-.3,3.44,3.44,0,0,1,1.87-1.71,5.38,5.38,0,0,0,.55-.24c.19-.12.36-.27.61-.16a.43.43,0,0,0,.25-.07l.91-.36a.6.6,0,0,0,.28-.21c.15-.21.17-.45.38-.66s.23-.5.32-.76.27-.74.44-1.1a46.26,46.26,0,0,1,2.86-5.44c.49-.75.93-1.57,1.46-2.31a21.33,21.33,0,0,1,1.63-1.93,3.07,3.07,0,0,1,1.91-1,2.52,2.52,0,0,1,1.16,0,1.91,1.91,0,0,1,.32.17,10.15,10.15,0,0,1,.81,1,1.47,1.47,0,0,1,.21.68,4.89,4.89,0,0,1-.51,2.5A17.68,17.68,0,0,1,161.9,14c-.19.25-.41.46-.6.7a21.05,21.05,0,0,1-3.09,3.24c-.09.06-.17.14-.25.19a.1.1,0,0,1-.07,0l-.06-.45c.53-.57,1.12-1.16,1.67-1.77.34-.37.6-.83.95-1.3a1.79,1.79,0,0,0-.88.83,22.15,22.15,0,0,1-2.17,2.27c-.14.14-.29.06-.46.14-.06-.14-.09-.27-.17-.44H157l.05-.62c.36-.35.78-.69,1.16-1.08.78-.78,1.57-1.56,2.29-2.39a14,14,0,0,0,2.2-3.77,3,3,0,0,0,.13-1.76,1.15,1.15,0,0,0-1,.2,7.06,7.06,0,0,0-1.16.93c-.61.65-1.14,1.33-1.7,2-.21.25-.4.51-.65.85,0-.19,0-.3,0-.39a41.58,41.58,0,0,0-3.77,7.16c.09,0,.19.05.3.09a2.58,2.58,0,0,0-.38,0c-.05.11-.09.23-.15.34l.12,0,.49-.13a.66.66,0,0,1,.81.91,1.28,1.28,0,0,1-.09.24l.49.29c0,.07-.08.21-.13.39a3.81,3.81,0,0,1-.63-1l-.07.34-.21-.36-.32,0c.11.27.2.51.32.76l-.1.06c-.11-.15-.2-.31-.3-.46a.81.81,0,0,0-1.06.44,1.62,1.62,0,0,1-.11-.25,14.12,14.12,0,0,0-.84,1.86l.38-.23.17.32a42.8,42.8,0,0,1-1.72,4.27A4.16,4.16,0,0,1,150,28.17,1.34,1.34,0,0,1,148.79,27ZM152.2,21l-1.36.74s0,.06,0,.08l.34,0c-.43.36-.83.66-1.21,1a3,3,0,0,0-.49.51,1.28,1.28,0,0,0-.14,1.41,1.68,1.68,0,0,1,.17.49c.16.38.31.76.48,1.21A44.56,44.56,0,0,0,152.2,21Zm6.54-10-.08-.07-.11.26.06,0Zm1.19-1.63A1.67,1.67,0,0,0,160,9l-.23.28.06.06A.28.28,0,0,0,159.93,9.28Zm1.33-1.42c.21-.17.42-.32.64-.47a.65.65,0,0,0-.64.25c-.21.2-.49.35-.59.68A3.87,3.87,0,0,0,161.26,7.86Zm1.52,2.67A2.87,2.87,0,0,0,162,12,5.5,5.5,0,0,0,162.78,10.53Z"/><path class="cls-1" d="M155.6,25.27a3.44,3.44,0,0,1,.05-.85A6.56,6.56,0,0,1,157,21.54c.34-.4.62-.81,1-1.19a3.42,3.42,0,0,1,.82-.59,1.1,1.1,0,0,0,.49-.51,1.47,1.47,0,0,1,1.29-.78c.32,0,.51.23.61.44s.41.19.49.3.3.51.17.78a1.19,1.19,0,0,0,0,.85A6,6,0,0,1,162,23a4,4,0,0,1-.62,1.63,4.62,4.62,0,0,1-1.71,1.66,2.17,2.17,0,0,0-1.38,0,3.84,3.84,0,0,1-.67.25A1.54,1.54,0,0,1,155.6,25.27Zm2.1-2.8a3.43,3.43,0,0,0,.85-.85,3.29,3.29,0,0,1,.59-.59c.21-.19.43-.38.64-.59a7.38,7.38,0,0,0,.51-.62l-.15-.21c-.28.19-.55.36-.81.55a23.33,23.33,0,0,0-1.78,1.68,4.94,4.94,0,0,0-1.1,1.88A4.26,4.26,0,0,1,157.7,22.47Zm.77,3.22a1.85,1.85,0,0,0,1.18-.76,7,7,0,0,0,1-1.32s.13,0,.23,0a2.39,2.39,0,0,0,.21-1.65c-.15.44-.29.81-.4,1.19a4.82,4.82,0,0,0-.17-2.92l-.08.37a1.51,1.51,0,0,1-.09-.18h-.1A12.34,12.34,0,0,0,158.42,22a6.88,6.88,0,0,0-1.08,1.5,2.35,2.35,0,0,0-.38,1.82l.93.15a.07.07,0,0,1,0,.06H157a.54.54,0,0,0,.7.34C158,25.82,158.21,25.73,158.47,25.69Z"/></g></g></svg>